<?xml version="1.0" encoding="UTF-8"?>
<svg data-bbox="0.332 0 103.253 79.999" xmlns="http://www.w3.org/2000/svg" viewBox="0 0 104 80" height="80" width="104" data-type="color">
    <g>
        <path fill="#D94A3D" d="M78.479 12.517c0 1.415-1.196 2.612-2.609 2.612H59.784c-1.521 0-2.608-1.197-2.608-2.612V3.81c0-1.415 1.195-2.94 2.608-3.157 5.326-.87 10.76-.87 16.086 0 1.522.327 2.61 1.742 2.61 3.157z" data-color="1"/>
        <path fill="#D94A3D" d="M94.566 24.49c-1.087 1.088-2.717 1.088-3.804 0l-3.804-3.81c-1.087-1.089-1.087-2.721 0-3.81l5.543-5.55c1.087-1.09 2.717-1.09 3.804 0l3.804 3.809c1.087 1.088 1.087 2.72 0 3.81z" data-color="1"/>
        <path fill="#D94A3D" d="M15.33 27.646c0-2.068-1.738-3.81-3.803-3.81h-7.39c-2.066 0-3.805 1.742-3.805 3.81s1.739 3.81 3.804 3.81h7.39c2.066 0 3.805-1.741 3.805-3.81m8.805 3.81H39.35c1.196-2.721 2.826-5.224 4.782-7.51H24.135c-2.065 0-3.804 1.741-3.804 3.81 0 1.959 1.63 3.7 3.804 3.7m0 25.36c-2.065 0-3.804 1.742-3.804 3.81s1.739 3.81 3.804 3.81h19.998c-1.848-2.286-3.587-4.79-4.782-7.51 0-.11-15.216-.11-15.216-.11m12.499-12.734c0-1.306.108-2.504.217-3.81H11.418c-2.065 0-3.804 1.742-3.804 3.81s1.74 3.81 3.804 3.81h25.433c-.109-1.198-.217-2.395-.217-3.81" data-color="1"/>
        <path fill="#D1AA99" d="M75.763 27.646c-1.087.218-1.74 1.197-1.74 2.286v14.15c0 1.088-.869 1.85-1.847 1.85h-.217c-1.087 0-1.848-.871-1.848-1.85V30.04c0-1.198-.978-2.395-2.174-2.395-1.304-.109-2.391.98-2.391 2.286v14.15c0 1.088-.87 1.85-1.848 1.85h-.217c-1.087 0-1.848-.871-1.848-1.85V30.04c0-1.198-.978-2.395-2.174-2.395-1.304-.109-2.39.98-2.39 2.286v22.095c0 2.286 1.086 4.354 2.717 5.769l3.369 2.72V74.45h9.238V60.408l3.37-2.721c1.739-1.415 2.717-3.483 2.717-5.769V29.932c0-1.415-1.304-2.612-2.717-2.286" data-color="2"/>
        <path fill="#D94A3D" d="M67.719 80c-19.782 0-35.867-16.11-35.867-35.92S47.937 8.163 67.719 8.163c19.78 0 35.866 16.109 35.866 35.918C103.585 63.891 87.5 80 67.719 80m0-62.367c-14.565 0-26.412 11.863-26.412 26.448S53.154 70.64 67.72 70.64s26.41-11.864 26.41-26.449-11.846-26.557-26.41-26.557" data-color="1"/>
    </g>
</svg>
